<svg width="20" height="20" viewBox="0 0 20 20" fill="none" xmlns="http://www.w3.org/2000/svg">
<path d="M6.81523 17.2206C7.07587 17.2206 7.30394 17.1228 7.49128 16.9436L13.8282 10.737C14.0563 10.5252 14.1622 10.2809 14.1622 9.99578C14.154 9.7107 14.0482 9.46635 13.8282 9.24643L7.49128 3.04793C7.30394 2.86874 7.08402 2.771 6.81523 2.771C6.2695 2.771 5.84595 3.19455 5.84595 3.74027C5.84595 4.00092 5.95183 4.24528 6.13917 4.43262L11.8408 9.99578L6.13917 15.559C5.95184 15.7463 5.84595 15.9825 5.84595 16.2513C5.84595 16.797 6.2695 17.2206 6.81523 17.2206Z" fill="white"/>
</svg>
