<svg width="20" height="20" viewBox="0 0 20 20" fill="none" xmlns="http://www.w3.org/2000/svg">
<path d="M13.1845 2.77943C12.9239 2.77943 12.6958 2.87717 12.5085 3.05636L6.17152 9.263C5.94345 9.47478 5.83756 9.71913 5.83756 10.0042C5.84571 10.2893 5.9516 10.5337 6.17152 10.7536L12.5085 16.9521C12.6958 17.1313 12.9157 17.229 13.1845 17.229C13.7303 17.229 14.1538 16.8055 14.1538 16.2597C14.1538 15.9991 14.0479 15.7547 13.8606 15.5674L8.15895 10.0042L13.8606 4.44105C14.0479 4.25371 14.1538 4.0175 14.1538 3.74871C14.1538 3.20298 13.7303 2.77943 13.1845 2.77943Z" fill="white"/>
</svg>
